<?xml version="1.0" encoding="UTF-8" standalone="no"?>
<!DOCTYPE svg PUBLIC "-//W3C//DTD SVG 1.1//EN" "http://www.w3.org/Graphics/SVG/1.1/DTD/svg11.dtd">
<svg xmlns="http://www.w3.org/2000/svg" version="1.1" viewBox="0.00 0.00 375.00 367.00">
<path fill="#1f2122" d="
  M 186.30 116.60
  Q 185.65 118.34 184.66 119.92
  C 175.51 134.41 166.76 148.60 157.94 163.86
  C 139.86 195.15 122.37 220.40 107.19 247.90
  C 95.24 269.55 81.34 290.33 68.37 311.31
  A 2.39 2.39 0.0 0 1 66.58 312.43
  Q 64.00 312.72 61.00 312.71
  Q 31.15 312.70 1.89 312.79
  Q 0.78 312.79 1.33 311.82
  C 15.58 286.98 32.11 261.32 45.75 238.32
  Q 46.94 236.32 52.23 225.98
  C 55.89 218.81 61.48 211.22 64.83 205.59
  Q 86.81 168.74 96.19 154.24
  Q 101.23 146.46 104.28 140.52
  C 114.09 121.45 126.02 103.93 137.07 85.61
  C 153.59 58.22 169.00 30.17 186.06 3.11
  A 0.81 0.80 45.3 0 1 187.43 3.12
  C 207.37 35.58 228.27 72.49 246.45 100.80
  Q 256.71 116.78 263.65 128.46
  Q 264.96 130.65 270.96 142.18
  C 275.40 150.71 282.08 159.75 286.12 166.45
  C 296.28 183.28 306.34 200.11 317.12 216.56
  C 321.88 223.84 325.85 232.91 329.60 239.28
  C 343.96 263.64 359.28 286.55 373.54 311.28
  A 0.85 0.85 0.0 0 1 372.80 312.55
  L 306.51 312.82
  A 1.34 1.32 -14.6 0 1 305.35 312.15
  C 296.15 295.98 286.53 279.90 276.05 264.38
  C 271.60 257.80 268.08 249.46 264.70 243.73
  Q 255.63 228.36 246.01 213.33
  C 235.93 197.55 225.71 180.59 217.34 166.42
  C 215.76 163.74 214.32 160.47 212.63 157.70
  Q 201.23 139.07 189.89 120.40
  Q 188.40 117.96 187.01 116.46
  Q 186.55 115.96 186.30 116.60
  Z"
/>
<path fill="#1f2122" d="
  M 207.24 252.30
  C 216.59 255.98 228.72 265.15 234.54 273.71
  C 245.66 290.03 247.80 310.33 238.90 328.15
  C 223.32 359.34 185.96 374.39 155.36 353.05
  C 140.64 342.79 129.45 326.27 128.76 308.03
  C 128.19 292.75 133.88 275.44 145.98 265.22
  C 152.33 259.86 159.46 254.36 167.15 251.65
  Q 187.43 244.49 207.24 252.30
  Z"
/>
</svg>
